{
	"asset":{
		"generator":"Khronos glTF Blender I/O v5.2.39",
		"version":"2.0"
	},
	"scene":0,
	"scenes":[
		{
			"name":"Scene",
			"nodes":[
				0
			]
		}
	],
	"nodes":[
		{
			"mesh":0,
			"name":"Flame_01"
		}
	],
	"materials":[
		{
			"doubleSided":true,
			"emissiveFactor":[
				1,
				0.44999998807907104,
				0.07999999821186066
			],
			"name":"M_Flame",
			"pbrMetallicRoughness":{
				"baseColorFactor":[
					1,
					0.44999998807907104,
					0.07999999821186066,
					1
				],
				"metallicFactor":0,
				"roughnessFactor":0.5
			}
		}
	],
	"meshes":[
		{
			"name":"Flame_01_mesh",
			"primitives":[
				{
					"attributes":{
						"POSITION":0,
						"NORMAL":1,
						"TEXCOORD_0":2
					},
					"indices":3,
					"material":0
				}
			]
		}
	],
	"accessors":[
		{
			"bufferView":0,
			"componentType":5126,
			"count":261,
			"max":[
				0.07938623428344727,
				0.30000001192092896,
				0.06608934700489044
			],
			"min":[
				-0.10328647494316101,
				0,
				-0.10180716216564178
			],
			"type":"VEC3"
		},
		{
			"bufferView":1,
			"componentType":5126,
			"count":261,
			"type":"VEC3"
		},
		{
			"bufferView":2,
			"componentType":5126,
			"count":261,
			"type":"VEC2"
		},
		{
			"bufferView":3,
			"componentType":5123,
			"count":1344,
			"type":"SCALAR"
		}
	],
	"bufferViews":[
		{
			"buffer":0,
			"byteLength":3132,
			"byteOffset":0,
			"target":34962
		},
		{
			"buffer":0,
			"byteLength":3132,
			"byteOffset":3132,
			"target":34962
		},
		{
			"buffer":0,
			"byteLength":2088,
			"byteOffset":6264,
			"target":34962
		},
		{
			"buffer":0,
			"byteLength":2688,
			"byteOffset":8352,
			"target":34963
		}
	],
	"buffers":[
		{
			"byteLength":11040,
			"uri":"Flame_01.bin"
		}
	]
}
