{
 "asset": {
  "version": "2.0",
  "generator": "convert_assets.py"
 },
 "scene": 0,
 "scenes": [
  {
   "nodes": [
    0
   ]
  }
 ],
 "nodes": [
  {
   "name": "SM_Bookshelf_01",
   "mesh": 0
  }
 ],
 "meshes": [
  {
   "name": "SM_Bookshelf_01",
   "primitives": [
    {
     "attributes": {
      "POSITION": 0,
      "NORMAL": 1,
      "TEXCOORD_0": 2
     },
     "indices": 3,
     "mode": 4
    }
   ]
  }
 ],
 "buffers": [
  {
   "uri": "SM_Bookshelf_01.bin",
   "byteLength": 123360
  }
 ],
 "bufferViews": [
  {
   "buffer": 0,
   "byteOffset": 0,
   "byteLength": 38880,
   "target": 34962
  },
  {
   "buffer": 0,
   "byteOffset": 38880,
   "byteLength": 38880,
   "target": 34962
  },
  {
   "buffer": 0,
   "byteOffset": 77760,
   "byteLength": 25920,
   "target": 34962
  },
  {
   "buffer": 0,
   "byteOffset": 103680,
   "byteLength": 19680,
   "target": 34963
  }
 ],
 "accessors": [
  {
   "bufferView": 0,
   "byteOffset": 0,
   "componentType": 5126,
   "count": 3240,
   "type": "VEC3",
   "min": [
    -0.03700000047683716,
    0.029999999329447746,
    -2.4619998931884766
   ],
   "max": [
    0.5230000019073486,
    4.949999809265137,
    0.0
   ]
  },
  {
   "bufferView": 1,
   "byteOffset": 0,
   "componentType": 5126,
   "count": 3240,
   "type": "VEC3"
  },
  {
   "bufferView": 2,
   "byteOffset": 0,
   "componentType": 5126,
   "count": 3240,
   "type": "VEC2"
  },
  {
   "bufferView": 3,
   "byteOffset": 0,
   "componentType": 5125,
   "count": 4920,
   "type": "SCALAR"
  }
 ]
}