{
 "asset": {
  "version": "2.0",
  "generator": "convert_assets.py"
 },
 "scene": 0,
 "scenes": [
  {
   "nodes": [
    0
   ]
  }
 ],
 "nodes": [
  {
   "name": "SM_CastleBanners_01",
   "mesh": 0
  }
 ],
 "meshes": [
  {
   "name": "SM_CastleBanners_01",
   "primitives": [
    {
     "attributes": {
      "POSITION": 0,
      "NORMAL": 1,
      "TEXCOORD_0": 2
     },
     "indices": 3,
     "mode": 4
    }
   ]
  }
 ],
 "buffers": [
  {
   "uri": "SM_CastleBanners_01.bin",
   "byteLength": 145628
  }
 ],
 "bufferViews": [
  {
   "buffer": 0,
   "byteOffset": 0,
   "byteLength": 35220,
   "target": 34962
  },
  {
   "buffer": 0,
   "byteOffset": 35220,
   "byteLength": 35220,
   "target": 34962
  },
  {
   "buffer": 0,
   "byteOffset": 70440,
   "byteLength": 23480,
   "target": 34962
  },
  {
   "buffer": 0,
   "byteOffset": 93920,
   "byteLength": 51708,
   "target": 34963
  }
 ],
 "accessors": [
  {
   "bufferView": 0,
   "byteOffset": 0,
   "componentType": 5126,
   "count": 2935,
   "type": "VEC3",
   "min": [
    -0.1656443476676941,
    1.6948444843292236,
    -1.014731764793396
   ],
   "max": [
    0.19392000138759613,
    4.139046669006348,
    1.014731764793396
   ]
  },
  {
   "bufferView": 1,
   "byteOffset": 0,
   "componentType": 5126,
   "count": 2935,
   "type": "VEC3"
  },
  {
   "bufferView": 2,
   "byteOffset": 0,
   "componentType": 5126,
   "count": 2935,
   "type": "VEC2"
  },
  {
   "bufferView": 3,
   "byteOffset": 0,
   "componentType": 5125,
   "count": 12927,
   "type": "SCALAR"
  }
 ]
}