{
	"asset":{
		"generator":"Khronos glTF Blender I/O v5.2.39",
		"version":"2.0"
	},
	"scene":0,
	"scenes":[
		{
			"name":"Scene",
			"nodes":[
				0
			]
		}
	],
	"nodes":[
		{
			"mesh":0,
			"name":"SM_Door_01",
			"translation":[
				-1,
				0,
				4.815558433532715
			]
		}
	],
	"meshes":[
		{
			"name":"SM_Door_01.002",
			"primitives":[
				{
					"attributes":{
						"POSITION":0,
						"NORMAL":1,
						"TEXCOORD_0":2
					},
					"indices":3
				}
			]
		}
	],
	"accessors":[
		{
			"bufferView":0,
			"componentType":5126,
			"count":15910,
			"max":[
				0.3602046072483063,
				4.920737266540527,
				0
			],
			"min":[
				-0.10720443725585938,
				0.15636177361011505,
				-2.4624738693237305
			],
			"type":"VEC3"
		},
		{
			"bufferView":1,
			"componentType":5126,
			"count":15910,
			"type":"VEC3"
		},
		{
			"bufferView":2,
			"componentType":5126,
			"count":15910,
			"type":"VEC2"
		},
		{
			"bufferView":3,
			"componentType":5123,
			"count":80856,
			"type":"SCALAR"
		}
	],
	"bufferViews":[
		{
			"buffer":0,
			"byteLength":190920,
			"byteOffset":0,
			"target":34962
		},
		{
			"buffer":0,
			"byteLength":190920,
			"byteOffset":190920,
			"target":34962
		},
		{
			"buffer":0,
			"byteLength":127280,
			"byteOffset":381840,
			"target":34962
		},
		{
			"buffer":0,
			"byteLength":161712,
			"byteOffset":509120,
			"target":34963
		}
	],
	"buffers":[
		{
			"byteLength":670832,
			"uri":"SM_Door_01.bin"
		}
	]
}
