{
 "asset": {
  "version": "2.0",
  "generator": "convert_assets.py"
 },
 "scene": 0,
 "scenes": [
  {
   "nodes": [
    0
   ]
  }
 ],
 "nodes": [
  {
   "name": "SM_StoneCeiling_02",
   "mesh": 0
  }
 ],
 "meshes": [
  {
   "name": "SM_StoneCeiling_02",
   "primitives": [
    {
     "attributes": {
      "POSITION": 0,
      "NORMAL": 1,
      "TEXCOORD_0": 2
     },
     "indices": 3,
     "mode": 4
    }
   ]
  }
 ],
 "buffers": [
  {
   "uri": "SM_StoneCeiling_02.bin",
   "byteLength": 115872
  }
 ],
 "bufferViews": [
  {
   "buffer": 0,
   "byteOffset": 0,
   "byteLength": 37296,
   "target": 34962
  },
  {
   "buffer": 0,
   "byteOffset": 37296,
   "byteLength": 37296,
   "target": 34962
  },
  {
   "buffer": 0,
   "byteOffset": 74592,
   "byteLength": 24864,
   "target": 34962
  },
  {
   "buffer": 0,
   "byteOffset": 99456,
   "byteLength": 16416,
   "target": 34963
  }
 ],
 "accessors": [
  {
   "bufferView": 0,
   "byteOffset": 0,
   "componentType": 5126,
   "count": 3108,
   "type": "VEC3",
   "min": [
    -7.199999809265137,
    0.0,
    0.0
   ],
   "max": [
    0.0,
    0.550000011920929,
    7.199999809265137
   ]
  },
  {
   "bufferView": 1,
   "byteOffset": 0,
   "componentType": 5126,
   "count": 3108,
   "type": "VEC3"
  },
  {
   "bufferView": 2,
   "byteOffset": 0,
   "componentType": 5126,
   "count": 3108,
   "type": "VEC2"
  },
  {
   "bufferView": 3,
   "byteOffset": 0,
   "componentType": 5125,
   "count": 4104,
   "type": "SCALAR"
  }
 ]
}