{
	"asset":{
		"generator":"Khronos glTF Blender I/O v5.1.20",
		"version":"2.0"
	},
	"scene":0,
	"scenes":[
		{
			"name":"Scene",
			"nodes":[
				0
			]
		}
	],
	"nodes":[
		{
			"mesh":0,
			"name":"SM_Torch_Held_01"
		}
	],
	"meshes":[
		{
			"name":"SM_Torch_Held_01",
			"primitives":[
				{
					"attributes":{
						"POSITION":0,
						"NORMAL":1,
						"TEXCOORD_0":2
					},
					"indices":3
				}
			]
		}
	],
	"accessors":[
		{
			"bufferView":0,
			"componentType":5126,
			"count":1912,
			"max":[
				-0.14116257429122925,
				0.4127790033817291,
				0.16458815336227417
			],
			"min":[
				-0.5490140914916992,
				-0.7169833779335022,
				-0.16458845138549805
			],
			"type":"VEC3"
		},
		{
			"bufferView":1,
			"componentType":5126,
			"count":1912,
			"type":"VEC3"
		},
		{
			"bufferView":2,
			"componentType":5126,
			"count":1912,
			"type":"VEC2"
		},
		{
			"bufferView":3,
			"componentType":5123,
			"count":8250,
			"type":"SCALAR"
		}
	],
	"bufferViews":[
		{
			"buffer":0,
			"byteLength":22944,
			"byteOffset":0,
			"target":34962
		},
		{
			"buffer":0,
			"byteLength":22944,
			"byteOffset":22944,
			"target":34962
		},
		{
			"buffer":0,
			"byteLength":15296,
			"byteOffset":45888,
			"target":34962
		},
		{
			"buffer":0,
			"byteLength":16500,
			"byteOffset":61184,
			"target":34963
		}
	],
	"buffers":[
		{
			"byteLength":77684,
			"uri":"SM_Torch_Held_01.bin"
		}
	]
}
