{
 "asset": {
  "version": "2.0",
  "generator": "convert_assets.py"
 },
 "scene": 0,
 "scenes": [
  {
   "nodes": [
    0
   ]
  }
 ],
 "nodes": [
  {
   "name": "SM_Table_01",
   "mesh": 0
  }
 ],
 "meshes": [
  {
   "name": "SM_Table_01",
   "primitives": [
    {
     "attributes": {
      "POSITION": 0,
      "NORMAL": 1,
      "TEXCOORD_0": 2
     },
     "indices": 3,
     "mode": 4
    }
   ]
  }
 ],
 "buffers": [
  {
   "uri": "SM_Table_01.bin",
   "byteLength": 58528
  }
 ],
 "bufferViews": [
  {
   "buffer": 0,
   "byteOffset": 0,
   "byteLength": 14928,
   "target": 34962
  },
  {
   "buffer": 0,
   "byteOffset": 14928,
   "byteLength": 14928,
   "target": 34962
  },
  {
   "buffer": 0,
   "byteOffset": 29856,
   "byteLength": 9952,
   "target": 34962
  },
  {
   "buffer": 0,
   "byteOffset": 39808,
   "byteLength": 18720,
   "target": 34963
  }
 ],
 "accessors": [
  {
   "bufferView": 0,
   "byteOffset": 0,
   "componentType": 5126,
   "count": 1244,
   "type": "VEC3",
   "min": [
    -2.2511467933654785,
    -5.8114931533737035e-08,
    -1.3168940544128418
   ],
   "max": [
    2.2705702781677246,
    1.5975638628005981,
    1.3167922496795654
   ]
  },
  {
   "bufferView": 1,
   "byteOffset": 0,
   "componentType": 5126,
   "count": 1244,
   "type": "VEC3"
  },
  {
   "bufferView": 2,
   "byteOffset": 0,
   "componentType": 5126,
   "count": 1244,
   "type": "VEC2"
  },
  {
   "bufferView": 3,
   "byteOffset": 0,
   "componentType": 5125,
   "count": 4680,
   "type": "SCALAR"
  }
 ]
}