{
 "asset": {
  "version": "2.0",
  "generator": "convert_assets.py"
 },
 "scene": 0,
 "scenes": [
  {
   "nodes": [
    0
   ]
  }
 ],
 "nodes": [
  {
   "name": "SM_Torch_01",
   "mesh": 0
  }
 ],
 "meshes": [
  {
   "name": "SM_Torch_01",
   "primitives": [
    {
     "attributes": {
      "POSITION": 0,
      "NORMAL": 1,
      "TEXCOORD_0": 2
     },
     "indices": 3,
     "mode": 4
    }
   ]
  }
 ],
 "buffers": [
  {
   "uri": "SM_Torch_01.bin",
   "byteLength": 135456
  }
 ],
 "bufferViews": [
  {
   "buffer": 0,
   "byteOffset": 0,
   "byteLength": 33660,
   "target": 34962
  },
  {
   "buffer": 0,
   "byteOffset": 33660,
   "byteLength": 33660,
   "target": 34962
  },
  {
   "buffer": 0,
   "byteOffset": 67320,
   "byteLength": 22440,
   "target": 34962
  },
  {
   "buffer": 0,
   "byteOffset": 89760,
   "byteLength": 45696,
   "target": 34963
  }
 ],
 "accessors": [
  {
   "bufferView": 0,
   "byteOffset": 0,
   "componentType": 5126,
   "count": 2805,
   "type": "VEC3",
   "min": [
    -0.5490140914916992,
    -0.7169833779335022,
    -0.16458845138549805
   ],
   "max": [
    -1.6543698677651264e-07,
    0.4127790033817291,
    0.16458815336227417
   ]
  },
  {
   "bufferView": 1,
   "byteOffset": 0,
   "componentType": 5126,
   "count": 2805,
   "type": "VEC3"
  },
  {
   "bufferView": 2,
   "byteOffset": 0,
   "componentType": 5126,
   "count": 2805,
   "type": "VEC2"
  },
  {
   "bufferView": 3,
   "byteOffset": 0,
   "componentType": 5125,
   "count": 11424,
   "type": "SCALAR"
  }
 ]
}