{
	"asset":{
		"generator":"Khronos glTF Blender I/O v5.2.39",
		"version":"2.0"
	},
	"scene":0,
	"scenes":[
		{
			"name":"Scene",
			"nodes":[
				0
			]
		}
	],
	"nodes":[
		{
			"mesh":0,
			"name":"SM_WallDoor_Hole_01"
		}
	],
	"meshes":[
		{
			"name":"SM_WallDoor_01.004",
			"primitives":[
				{
					"attributes":{
						"POSITION":0,
						"NORMAL":1,
						"TEXCOORD_0":2
					},
					"indices":3
				}
			]
		}
	],
	"accessors":[
		{
			"bufferView":0,
			"componentType":5126,
			"count":5873,
			"max":[
				0,
				6.1929521560668945,
				7.200000286102295
			],
			"min":[
				-1.2421382665634155,
				-3.6887847443267674e-08,
				0
			],
			"type":"VEC3"
		},
		{
			"bufferView":1,
			"componentType":5126,
			"count":5873,
			"type":"VEC3"
		},
		{
			"bufferView":2,
			"componentType":5126,
			"count":5873,
			"type":"VEC2"
		},
		{
			"bufferView":3,
			"componentType":5123,
			"count":16359,
			"type":"SCALAR"
		}
	],
	"bufferViews":[
		{
			"buffer":0,
			"byteLength":70476,
			"byteOffset":0,
			"target":34962
		},
		{
			"buffer":0,
			"byteLength":70476,
			"byteOffset":70476,
			"target":34962
		},
		{
			"buffer":0,
			"byteLength":46984,
			"byteOffset":140952,
			"target":34962
		},
		{
			"buffer":0,
			"byteLength":32718,
			"byteOffset":187936,
			"target":34963
		}
	],
	"buffers":[
		{
			"byteLength":220656,
			"uri":"SM_WallDoor_Hole_01.bin"
		}
	]
}
