{
	"asset":{
		"generator":"Khronos glTF Blender I/O v5.2.39",
		"version":"2.0"
	},
	"scene":0,
	"scenes":[
		{
			"name":"Scene",
			"nodes":[
				0
			]
		}
	],
	"nodes":[
		{
			"mesh":0,
			"name":"TorchSkull_01"
		}
	],
	"materials":[
		{
			"doubleSided":true,
			"name":"M_TorchSkull",
			"pbrMetallicRoughness":{
				"baseColorTexture":{
					"index":0
				},
				"metallicFactor":0,
				"roughnessFactor":0.7799999713897705
			}
		}
	],
	"meshes":[
		{
			"name":"TorchSkull_01_mesh",
			"primitives":[
				{
					"attributes":{
						"POSITION":0,
						"NORMAL":1,
						"TEXCOORD_0":2
					},
					"indices":3,
					"material":0
				}
			]
		}
	],
	"textures":[
		{
			"sampler":0,
			"source":0
		}
	],
	"images":[
		{
			"mimeType":"image/png",
			"name":"T_TorchSkull_01_BaseColor",
			"uri":"T_TorchSkull_01_BaseColor.png"
		}
	],
	"accessors":[
		{
			"bufferView":0,
			"componentType":5126,
			"count":1523,
			"max":[
				0.03673383221030235,
				0.06499999761581421,
				0.03997469320893288
			],
			"min":[
				-0.03673383221030235,
				-0.06499999761581421,
				-0.03997469320893288
			],
			"type":"VEC3"
		},
		{
			"bufferView":1,
			"componentType":5126,
			"count":1523,
			"type":"VEC3"
		},
		{
			"bufferView":2,
			"componentType":5126,
			"count":1523,
			"type":"VEC2"
		},
		{
			"bufferView":3,
			"componentType":5123,
			"count":7200,
			"type":"SCALAR"
		}
	],
	"bufferViews":[
		{
			"buffer":0,
			"byteLength":18276,
			"byteOffset":0,
			"target":34962
		},
		{
			"buffer":0,
			"byteLength":18276,
			"byteOffset":18276,
			"target":34962
		},
		{
			"buffer":0,
			"byteLength":12184,
			"byteOffset":36552,
			"target":34962
		},
		{
			"buffer":0,
			"byteLength":14400,
			"byteOffset":48736,
			"target":34963
		}
	],
	"samplers":[
		{
			"magFilter":9729,
			"minFilter":9987
		}
	],
	"buffers":[
		{
			"byteLength":63136,
			"uri":"TorchSkull_01.bin"
		}
	]
}
