{
	"asset":{
		"generator":"Khronos glTF Blender I/O v5.2.39",
		"version":"2.0"
	},
	"scene":0,
	"scenes":[
		{
			"name":"Scene",
			"nodes":[
				0
			]
		}
	],
	"nodes":[
		{
			"mesh":0,
			"name":"Ghost"
		}
	],
	"meshes":[
		{
			"name":"Cube",
			"primitives":[
				{
					"attributes":{
						"POSITION":0,
						"NORMAL":1,
						"TEXCOORD_0":2
					},
					"indices":3
				}
			]
		}
	],
	"accessors":[
		{
			"bufferView":0,
			"componentType":5126,
			"count":12266,
			"max":[
				1.293845295906067,
				0.829904317855835,
				0.9390543103218079
			],
			"min":[
				-1.2938337326049805,
				-1.8008756637573242,
				-0.8913573026657104
			],
			"type":"VEC3"
		},
		{
			"bufferView":1,
			"componentType":5126,
			"count":12266,
			"type":"VEC3"
		},
		{
			"bufferView":2,
			"componentType":5126,
			"count":12266,
			"type":"VEC2"
		},
		{
			"bufferView":3,
			"componentType":5123,
			"count":27744,
			"type":"SCALAR"
		}
	],
	"bufferViews":[
		{
			"buffer":0,
			"byteLength":147192,
			"byteOffset":0,
			"target":34962
		},
		{
			"buffer":0,
			"byteLength":147192,
			"byteOffset":147192,
			"target":34962
		},
		{
			"buffer":0,
			"byteLength":98128,
			"byteOffset":294384,
			"target":34962
		},
		{
			"buffer":0,
			"byteLength":55488,
			"byteOffset":392512,
			"target":34963
		}
	],
	"buffers":[
		{
			"byteLength":448000,
			"uri":"Ghost.bin"
		}
	]
}
